<svg width="39" height="38" viewBox="0 0 39 38" fill="none" xmlns="http://www.w3.org/2000/svg">
<path d="M9.00914 1.67473H5.00457C2.7929 1.67473 1 3.38432 1 5.49321V9.3117" stroke="black" stroke-width="2" stroke-linecap="round" stroke-linejoin="round"/>
<path d="M29.032 1.67473H33.0366C35.2483 1.67473 37.0411 3.38432 37.0411 5.49321V9.3117" stroke="black" stroke-width="2" stroke-linecap="round" stroke-linejoin="round"/>
<path d="M27.0297 11.2209V15.0394" stroke="black" stroke-width="2" stroke-linecap="round" stroke-linejoin="round"/>
<path d="M11.0114 11.2209V15.0394" stroke="black" stroke-width="2" stroke-linecap="round" stroke-linejoin="round"/>
<path d="M13.0137 26.4949C13.0137 26.4949 15.016 28.4041 19.0206 28.4041C23.0252 28.4041 25.0274 26.4949 25.0274 26.4949" stroke="black" stroke-width="2" stroke-linecap="round" stroke-linejoin="round"/>
<path d="M19.0206 11.2209V20.7672H17.0183" stroke="black" stroke-width="2" stroke-linecap="round" stroke-linejoin="round"/>
<path d="M9.00914 36.0411H5.00457C2.7929 36.0411 1 34.3316 1 32.2226V28.4041" stroke="black" stroke-width="2" stroke-linecap="round" stroke-linejoin="round"/>
<path d="M29.032 36.0411H33.0366C35.2483 36.0411 37.0411 34.3316 37.0411 32.2226V28.4041" stroke="black" stroke-width="2" stroke-linecap="round" stroke-linejoin="round"/>
</svg>
